<?xml version="1.0" encoding="utf-8"?>
<!-- Generator: Adobe Illustrator 24.2.3, SVG Export Plug-In . SVG Version: 6.00 Build 0)  -->
<svg version="1.1" id="Layer_1" xmlns="http://www.w3.org/2000/svg" xmlns:xlink="http://www.w3.org/1999/xlink" x="0px" y="0px"
	 viewBox="0 0 464 464" style="enable-background:new 0 0 464 464;" xml:space="preserve">
<style type="text/css">
	.st0{fill:#5C5C5C;}
	.st1{fill:#00FFFF;}
	.st2{fill:none;stroke:#242424;stroke-width:16;stroke-linecap:round;stroke-linejoin:round;stroke-miterlimit:10;}
	.st3{fill:none;}
</style>
<path class="st0" d="M34,314.4c14.5,18.5,32.1,31.7,51.9,39.2c4.7-4.5,9.3-11.7,13.2-21.1c9.2-22,13.4-50.3,15.2-73.7
	c-21.1,9.1-51.6,13.2-86.9-9.3c-10.2-6.5-23,3-19.8,14.7C7.9,265.2,14.9,290.2,34,314.4z"/>
<path class="st0" d="M351.1,258.9c2.3,27.1,9.3,75.7,28.6,94.6c19.8-7.6,37.2-20.7,51.6-39.1c19-24.3,26.1-49.2,26.4-50.3
	c3.2-11.6-9.6-21.2-19.8-14.7C402.6,272,372.2,268,351.1,258.9z"/>
<g>
	<path class="st0" d="M232.6,102.5c17.2-31.9,51.9-52.9,90.7-50.4C280.2-6.6,189.1-9.5,143.2,52C181.4,50.1,215.5,70.7,232.6,102.5
		L232.6,102.5z"/>
	<path class="st0" d="M455.4,374.7c-4-5.2-11.2-6.7-16.9-3.5c-28.6,15.9-51.8,18.6-68.9,8c-35.2-21.9-44.1-94.1-46-135.4
		c-38.3,2.5-73.4-17.7-91-50.4c-17.4,32.3-52.3,52.9-90.8,50.4c-1.7,39.7-9.7,106-40.2,131.4c0,0,0,0,0,0
		c-21.7,18.2-50,9.9-74.8-3.9c-5.7-3.2-12.9-1.7-16.9,3.5c-4,5.2-3.5,12.6,1.1,17.3c6.8,7,66,65.9,125.6,65.8
		c31.2,0,55-15.7,72.2-41c11.3-16.7,36.3-16.9,47.8,0c17.2,25.3,41,41,72.2,41c59.7,0,118.8-58.9,125.7-65.9
		C459,387.3,459.4,379.9,455.4,374.7L455.4,374.7z"/>
</g>
<path class="st1" d="M317.2,78.3c-38.4,0-69.6,31.2-69.6,69.6s31.2,69.6,69.6,69.6s69.6-31.2,69.6-69.6S355.6,78.3,317.2,78.3z
	 M322.8,151.8c-2.4,7.4-9.8,10.8-16.5,8.8c-7.6-2.5-10.7-10-8.8-16.5c2.6-8.1,11-11.2,17.7-8.4C321.8,138.5,324.7,145.5,322.8,151.8
	z"/>
<path class="st1" d="M148.1,78.3c-38.4,0-69.6,31.2-69.6,69.6s31.2,69.6,69.6,69.6s69.6-31.2,69.6-69.6S186.5,78.3,148.1,78.3z
	 M167.3,153c-3,7.1-10.9,9.8-17.3,7.1c-6.6-2.8-9.5-9.9-7.6-16c2.6-8,11-11.2,17.7-8.4C167.2,138.7,170,146.6,167.3,153z"/>
</svg>
