<?xml version="1.0" encoding="utf-8"?>
<!-- Generator: Adobe Illustrator 24.2.3, SVG Export Plug-In . SVG Version: 6.00 Build 0)  -->
<svg version="1.1" id="Layer_1" xmlns="http://www.w3.org/2000/svg" xmlns:xlink="http://www.w3.org/1999/xlink" x="0px" y="0px"
	 viewBox="0 0 464 464" style="enable-background:new 0 0 464 464;" xml:space="preserve">
<style type="text/css">
	.st0{fill:#5C5C5C;}
	.st1{fill:#00FFFF;}
	.st2{fill:none;stroke:#242424;stroke-width:16;stroke-linecap:round;stroke-linejoin:round;stroke-miterlimit:10;}
	.st3{fill:none;}
	.st4{font-family:'MyriadPro-Regular';}
	.st5{font-size:36px;}
</style>
<g>
	<g>
		<path class="st0" d="M374.7,64l11.1-2.6c5.3-1.2,9.3-5.6,9.8-11.1c0.6-5.4-2.3-10.6-7.2-12.9c-85.4-40.5-135.2-19-156.4-3.2
			c-21.1-15.8-71-37.3-156.4,3.2c-4.9,2.3-7.8,7.5-7.2,12.9c0.6,5.4,4.5,9.8,9.8,11.1l12,2.6c-35.7,19.6-78,65.3-76.1,168.2
			c0.1,5.3,3.4,9.9,8.4,11.7c5,1.9,10.5,0.4,14-3.5c2.8-3.1,6.4-6.3,9.9-8.9c-4.8,36.4-5.7,114.2,59.8,168.5
			c3.4,2.8,8.1,3.7,12.3,2.2c4.2-1.4,7.4-5,8.3-9.3l1.3-6.1c15.1,23.8,44.3,50.6,101.1,62.7c0.9,0.2,1.8,0.3,2.7,0.3
			c0.9,0,1.8-0.1,2.7-0.3c56.8-12.1,86.1-38.9,101.2-62.8l1.4,6.2c1,4.3,4.1,7.9,8.3,9.3c4.2,1.5,8.9,0.6,12.3-2.2
			c65.5-54.3,64.4-132.1,59.7-168.5c3.4,2.5,7,5.6,9.9,8.9c3.5,3.9,9.1,5.3,14,3.5c4.9-1.8,8.2-6.5,8.3-11.7
			C451.7,129.3,410.3,83.5,374.7,64z M339.3,237.8l-17.7,26.5v25c0,14.1-7.8,27.1-20.3,33.8c-2,1.1-4.2,1.7-6.4,2.4
			c-5,28.3-29.7,50.3-59.5,50.3h-6.8c-29.7,0-54.4-22-59.4-50.2c-2.2-0.7-4.3-1.4-6.4-2.5c-12.5-6.7-20.3-19.6-20.3-33.8v-25
			l-17.7-26.5c-21.9-32.7-24.5-74.9-6.9-110c17.3-34.4,60.8-45.8,92.6-24.6c13,8.7,29.8,8.7,42.8,0c32.1-21.4,81.5-12.2,98.6,39l0,0
			C362.9,174.6,358.2,209.5,339.3,237.8z"/>
	</g>
</g>
<g>
	<g>
		<path class="st1" d="M261.8,320.7L232,300.9l-29.8,19.9c-2.2,1.5-4.6,2.3-7,3.3c4.2,14.6,17.5,25.8,33.4,25.8h6.8
			c15.9,0,29.1-11.1,33.4-25.7C266.4,323.1,264,322.2,261.8,320.7z"/>
	</g>
</g>
<path class="st1" d="M327.5,150.2c-11-32.9-40-39.5-60.3-25.9c-21.7,14.5-49.6,14.5-71.3,0c-19.2-12.8-45.3-5.9-55.7,14.8
	c-13.5,27.1-11.5,59.5,5.3,84.7l19.9,29.8c1.4,2.1,2.2,4.6,2.2,7.1v28.7c0,6.9,4.7,10.2,6.7,11.2c2,1.1,7.4,3.2,13.1-0.6l31.2-20.8
	v-12.8l-22.2-22.2c-1.2-1.2-2.2-2.6-2.8-4.2c-0.7-1.6-1-3.3-1-5c0-21.5,17.5-39,39-39c21.5,0,39,17.5,39,39c0,1.7-0.3,3.4-1,5
	c-0.7,1.6-1.6,3-2.8,4.2l-22.2,22.2v12.8l31.2,20.8c5.7,3.8,11.1,1.7,13.1,0.6c2-1.1,6.7-4.3,6.7-11.2v-28.7c0-2.5,0.7-5,2.1-7.1
	l19.9-29.8C332.2,201.9,335.8,175.1,327.5,150.2z M180.6,196.7c-14.4,0-26.2-11.7-26.2-26.2s11.7-26.2,26.2-26.2
	c14.4,0,26.2,11.7,26.2,26.2S195.1,196.7,180.6,196.7z M286,197.2c-14.4,0-26.2-11.7-26.2-26.2c0-14.4,11.7-26.2,26.2-26.2
	s26.2,11.7,26.2,26.2C312.2,185.4,300.4,197.2,286,197.2z"/>
<text transform="matrix(0.7606 0 0 1 144.6922 -93.6792)"><tspan x="0" y="0" class="st4 st5">    &quot;House Lannister </tspan><tspan x="0" y="43.2" class="st4 st5">of Casterly Rock&quot;,</tspan></text>
</svg>
