<?xml version="1.0" encoding="utf-8"?>
<!-- Generator: Adobe Illustrator 24.2.3, SVG Export Plug-In . SVG Version: 6.00 Build 0)  -->
<svg version="1.1" id="Layer_1" xmlns="http://www.w3.org/2000/svg" xmlns:xlink="http://www.w3.org/1999/xlink" x="0px" y="0px"
	 viewBox="0 0 464 464" style="enable-background:new 0 0 464 464;" xml:space="preserve">
<style type="text/css">
	.st0{fill:#5C5C5C;}
	.st1{fill:#00FFFF;}
	.st2{fill:none;stroke:#242424;stroke-width:16;stroke-linecap:round;stroke-linejoin:round;stroke-miterlimit:10;}
	.st3{fill:none;}
</style>
<g>
	<g>
		<g>
			<path class="st0" d="M99.2,357.4C99.2,357.3,99.1,357.3,99.2,357.4c-3.1-2.9-5.9-6-8.3-9.3l-70.7,66.7c-5,4.7-5,12.4,0,17.1
				c2.5,2.4,5.8,3.5,9.1,3.5s6.6-1.2,9.1-3.5l70.8-66.7C105.5,362.8,102.2,360.2,99.2,357.4z"/>
		</g>
	</g>
	<g>
		<g>
			<path class="st1" d="M444.6,32.9L444.6,32.9c-2.8-3.1-7.1-4.6-11.3-4.1c-1.4,0.2-34.4,4.1-80.1,17.6
				c-42.2,12.5-103.7,35.8-156.4,76.1c-35.3,27-65.1,57.5-86.1,88.1c-20.7,30.3-32.5,60.2-33.9,86.3c-1.1,19.8,3.8,37.3,14.1,51.2
				l217.9-205.4c4.3-4.1,10.8-5.1,15.9-2.1c7.4,4.3,8.2,13.5,2.4,18.9L109,365.1c13.4,8.9,29.9,13.5,48.5,13.5c1.9,0,3.8,0,5.8-0.1
				c27.7-1.4,59.3-12.4,91.5-32c17-10.3,33.9-22.9,50.3-37.4l-55.9-8.6c-7-1.1-11.7-7.3-10.6-13.9c1.1-6.6,7.7-11.1,14.7-10l74,11.4
				c6.6-6.7,13-13.6,19.3-20.9l-53.4-8.3c-7-1.1-11.7-7.3-10.6-13.9c1.2-6.6,7.8-11.1,14.7-10l66.7,10.4
				c33.1-44.7,53.3-93,64.8-127.6c14.3-43.1,18.5-74.2,18.7-75.5C448,38.9,446.9,35.5,444.6,32.9z"/>
		</g>
	</g>
</g>
</svg>
