<?xml version="1.0" encoding="utf-8"?>
<!-- Generator: Adobe Illustrator 24.2.3, SVG Export Plug-In . SVG Version: 6.00 Build 0)  -->
<svg version="1.1" id="Layer_1" xmlns="http://www.w3.org/2000/svg" xmlns:xlink="http://www.w3.org/1999/xlink" x="0px" y="0px"
	 viewBox="0 0 464 464" style="enable-background:new 0 0 464 464;" xml:space="preserve">
<style type="text/css">
	.st0{fill:#5C5C5C;}
	.st1{fill:#00FFFF;}
	.st2{fill:none;stroke:#242424;stroke-width:16;stroke-linecap:round;stroke-linejoin:round;stroke-miterlimit:10;}
	.st3{fill:none;}
</style>
<path class="st0" d="M206.3,360.5c6.5,18.9,14.5,32.2,15.1,33.1c2.9,4.7,8.4,7,13.7,5.7c2.9-0.7,71.4-17.6,92.2-67.7
	c1.7-4,3.2-8.1,4.5-12.1C294,342.2,249.8,354.7,206.3,360.5L206.3,360.5z"/>
<path class="st0" d="M91.8,244.5c0.1,0,5.7-0.6,13.7-0.7c9.5-56.6,30.8-112.9,71.3-153.5c9-9,18.5-17.4,28.6-25.4
	c-13-3.7-29.4-4.7-50.1-0.5c-40.6,8.1-59.7,52-68.9,92.2c-8.6,38-8.7,73.8-8.7,75.3C77.8,239.4,84.3,245.3,91.8,244.5z"/>
<path class="st0" d="M160.9,364.3c-7.3,0.2-18,0.3-25.3-0.1c-19.3-1.1-34.7-16.5-35.8-35.8c-0.3-5-0.4-14.6-0.1-25.3
	c-17.1,2.4-40.3,3-68.3-2.6c-7.8-1.6-15.1,4.4-15.1,12.4c0,26.7,8.7,50.1,24,64.3c16.1,14.9,31.8,30.6,46.7,46.7
	c14.2,15.2,37.6,24,64.3,24c8,0,14-7.3,12.4-15.1C157.9,404.6,158.5,381.4,160.9,364.3L160.9,364.3z"/>
<path class="st1" d="M401,197.4c-58.2-4.1-130.1-75.9-134.4-134.2c0-0.7,0-0.3,0-8.5c-27.1,15-51.3,32.9-71.8,53.5
	C149,154,130.1,224.7,125.7,288.7c-1.1,16-1.1,30.9-0.7,38.4c0.4,6.4,5.5,11.6,11.9,11.9c16.1,0.9,46.5-0.3,75.8-5
	c44.8-7.2,90-22,125.7-49.6c0-0.3,6.6-4.8,17.9-15.8c20.3-20.4,38.2-44.4,52.8-70.7L401,197.4z"/>
<path class="st0" d="M446.9,57.4c-1.1-9.5-4.2-20.2-10.5-27.6c-13.9-16.1-46-14.8-67.1-11.6c-26.2,4-53.5,13-77.5,23.8v19.7
	c3.7,45.8,65.5,107.2,110.9,110.4l18.7,1.3C436.5,140.4,451.3,93.4,446.9,57.4z M356.1,99.1c-10.2,0-18.5-8.3-18.5-18.5
	c0-10.2,8.3-18.5,18.5-18.5c10.2,0,18.5,8.3,18.5,18.5C374.7,90.8,366.4,99.1,356.1,99.1z"/>
</svg>
