<?xml version="1.0" encoding="utf-8"?>
<!-- Generator: Adobe Illustrator 24.2.3, SVG Export Plug-In . SVG Version: 6.00 Build 0)  -->
<svg version="1.1" id="Layer_1" xmlns="http://www.w3.org/2000/svg" xmlns:xlink="http://www.w3.org/1999/xlink" x="0px" y="0px"
	 viewBox="0 0 464 464" style="enable-background:new 0 0 464 464;" xml:space="preserve">
<style type="text/css">
	.st0{fill:#5C5C5C;}
	.st1{fill:#00FFFF;}
	.st2{fill:none;stroke:#242424;stroke-width:16;stroke-linecap:round;stroke-linejoin:round;stroke-miterlimit:10;}
	.st3{fill:none;}
</style>
<g>
	<g>
		<g>
			<path class="st1" d="M96.9-1.6c0,13.4-10.3,24.3-23.4,25.4c0,0-0.1,0-0.1,0c-0.2,0-0.3,0-0.5,0c-0.1,0-0.1,0-0.2,0
				c-0.1,0-0.3,0-0.4,0c-0.1,0-0.1,0-0.2,0c-0.2,0-0.4,0-0.6,0h0c-0.2,0-0.4,0-0.6,0C57,23.5,46,12.2,46-1.6
				c0-20.5,25.4-49.8,25.4-49.8S96.9-22.1,96.9-1.6z"/>
		</g>
	</g>
	<g>
		<g>
			<path class="st1" d="M96.9,128.4c0,13.4-10.3,24.3-23.4,25.4c0,0-0.1,0-0.1,0c-0.2,0-0.3,0-0.5,0c-0.1,0-0.1,0-0.2,0
				c-0.1,0-0.3,0-0.4,0c-0.1,0-0.1,0-0.2,0c-0.2,0-0.4,0-0.6,0h0c-0.2,0-0.4,0-0.6,0C57,153.5,46,142.2,46,128.4
				c0-20.5,25.4-49.8,25.4-49.8S96.9,107.9,96.9,128.4z"/>
		</g>
	</g>
	<g>
		<g>
			<path class="st1" d="M203.2,68.4c0,13.4-10.3,24.3-23.4,25.4c0,0-0.1,0-0.1,0c-0.2,0-0.3,0-0.5,0c-0.1,0-0.1,0-0.2,0
				c-0.1,0-0.3,0-0.4,0c-0.1,0-0.1,0-0.2,0c-0.2,0-0.4,0-0.6,0h0c-0.2,0-0.4,0-0.6,0c-13.7-0.3-24.8-11.6-24.8-25.4
				c0-20.5,25.4-49.8,25.4-49.8S203.2,47.9,203.2,68.4z"/>
		</g>
	</g>
	<g>
		<g>
			<path class="st1" d="M203.2,198.4c0,13.4-10.3,24.3-23.4,25.4c0,0-0.1,0-0.1,0c-0.2,0-0.3,0-0.5,0c-0.1,0-0.1,0-0.2,0
				c-0.1,0-0.3,0-0.4,0c-0.1,0-0.1,0-0.2,0c-0.2,0-0.4,0-0.6,0h0c-0.2,0-0.4,0-0.6,0c-13.7-0.3-24.8-11.6-24.8-25.4
				c0-20.5,25.4-49.8,25.4-49.8S203.2,177.9,203.2,198.4z"/>
		</g>
	</g>
	<g>
		<g>
			<path class="st1" d="M97.8,258.4c0,13.4-10.3,24.3-23.4,25.4c0,0-0.1,0-0.1,0c-0.2,0-0.3,0-0.5,0c-0.1,0-0.1,0-0.2,0
				c-0.1,0-0.3,0-0.4,0c-0.1,0-0.1,0-0.2,0c-0.2,0-0.4,0-0.6,0h0c-0.2,0-0.4,0-0.6,0C58,283.5,47,272.2,47,258.4
				c0-20.5,25.4-49.8,25.4-49.8S97.8,237.9,97.8,258.4z"/>
		</g>
	</g>
	<g>
		<g>
			<path class="st1" d="M97.8,388.4c0,13.4-10.3,24.3-23.4,25.4c0,0-0.1,0-0.1,0c-0.2,0-0.3,0-0.5,0c-0.1,0-0.1,0-0.2,0
				c-0.1,0-0.3,0-0.4,0c-0.1,0-0.1,0-0.2,0c-0.2,0-0.4,0-0.6,0h0c-0.2,0-0.4,0-0.6,0C58,413.5,47,402.2,47,388.4
				c0-20.5,25.4-49.8,25.4-49.8S97.8,367.9,97.8,388.4z"/>
		</g>
	</g>
	<g>
		<g>
			<path class="st1" d="M204.2,328.4c0,13.4-10.3,24.3-23.4,25.4c0,0-0.1,0-0.1,0c-0.2,0-0.3,0-0.5,0c-0.1,0-0.1,0-0.2,0
				c-0.1,0-0.3,0-0.4,0c-0.1,0-0.1,0-0.2,0c-0.2,0-0.4,0-0.6,0h0c-0.2,0-0.4,0-0.6,0c-13.7-0.3-24.8-11.6-24.8-25.4
				c0-20.5,25.4-49.8,25.4-49.8S204.2,307.9,204.2,328.4z"/>
		</g>
	</g>
	<g>
		<g>
			<path class="st1" d="M204.2,458.4c0,13.4-10.3,24.3-23.4,25.4c0,0-0.1,0-0.1,0c-0.2,0-0.3,0-0.5,0c-0.1,0-0.1,0-0.2,0
				c-0.1,0-0.3,0-0.4,0c-0.1,0-0.1,0-0.2,0c-0.2,0-0.4,0-0.6,0h0c-0.2,0-0.4,0-0.6,0c-13.7-0.3-24.8-11.6-24.8-25.4
				c0-20.5,25.4-49.8,25.4-49.8S204.2,437.9,204.2,458.4z"/>
		</g>
	</g>
	<g>
		<g>
			<path class="st1" d="M310.5,6.4c0,13.4-10.3,24.3-23.4,25.4c0,0-0.1,0-0.1,0c-0.2,0-0.3,0-0.5,0c-0.1,0-0.1,0-0.2,0
				c-0.1,0-0.3,0-0.4,0c-0.1,0-0.1,0-0.2,0c-0.2,0-0.4,0-0.6,0h0c-0.2,0-0.4,0-0.6,0c-13.7-0.3-24.8-11.6-24.8-25.4
				c0-20.5,25.4-49.8,25.4-49.8S310.5-14.1,310.5,6.4z"/>
		</g>
	</g>
	<g>
		<g>
			<path class="st1" d="M310.5,136.4c0,13.4-10.3,24.3-23.4,25.4c0,0-0.1,0-0.1,0c-0.2,0-0.3,0-0.5,0c-0.1,0-0.1,0-0.2,0
				c-0.1,0-0.3,0-0.4,0c-0.1,0-0.1,0-0.2,0c-0.2,0-0.4,0-0.6,0h0c-0.2,0-0.4,0-0.6,0c-13.7-0.3-24.8-11.6-24.8-25.4
				c0-20.5,25.4-49.8,25.4-49.8S310.5,115.9,310.5,136.4z"/>
		</g>
	</g>
	<g>
		<g>
			<path class="st1" d="M416.8,76.4c0,13.4-10.3,24.3-23.4,25.4c0,0-0.1,0-0.1,0c-0.2,0-0.3,0-0.5,0c-0.1,0-0.1,0-0.2,0
				c-0.1,0-0.3,0-0.4,0c-0.1,0-0.1,0-0.2,0c-0.2,0-0.4,0-0.6,0h0c-0.2,0-0.4,0-0.6,0C377,101.5,366,90.2,366,76.4
				c0-20.5,25.4-49.8,25.4-49.8S416.8,55.9,416.8,76.4z"/>
		</g>
	</g>
	<g>
		<g>
			<path class="st1" d="M416.8,206.4c0,13.4-10.3,24.3-23.4,25.4c0,0-0.1,0-0.1,0c-0.2,0-0.3,0-0.5,0c-0.1,0-0.1,0-0.2,0
				c-0.1,0-0.3,0-0.4,0c-0.1,0-0.1,0-0.2,0c-0.2,0-0.4,0-0.6,0h0c-0.2,0-0.4,0-0.6,0c-13.7-0.3-24.8-11.6-24.8-25.4
				c0-20.5,25.4-49.8,25.4-49.8S416.8,185.9,416.8,206.4z"/>
		</g>
	</g>
	<g>
		<g>
			<path class="st1" d="M311.5,265.4c0,13.4-10.3,24.3-23.4,25.4c0,0-0.1,0-0.1,0c-0.2,0-0.3,0-0.5,0c-0.1,0-0.1,0-0.2,0
				c-0.1,0-0.3,0-0.4,0c-0.1,0-0.1,0-0.2,0c-0.2,0-0.4,0-0.6,0h0c-0.2,0-0.4,0-0.6,0c-13.7-0.3-24.8-11.6-24.8-25.4
				c0-20.5,25.4-49.8,25.4-49.8S311.5,244.9,311.5,265.4z"/>
		</g>
	</g>
	<g>
		<g>
			<path class="st1" d="M311.5,395.4c0,13.4-10.3,24.3-23.4,25.4c0,0-0.1,0-0.1,0c-0.2,0-0.3,0-0.5,0c-0.1,0-0.1,0-0.2,0
				c-0.1,0-0.3,0-0.4,0c-0.1,0-0.1,0-0.2,0c-0.2,0-0.4,0-0.6,0h0c-0.2,0-0.4,0-0.6,0c-13.7-0.3-24.8-11.6-24.8-25.4
				c0-20.5,25.4-49.8,25.4-49.8S311.5,374.9,311.5,395.4z"/>
		</g>
	</g>
	<g>
		<g>
			<path class="st1" d="M417.8,336.4c0,13.4-10.3,24.3-23.4,25.4c0,0-0.1,0-0.1,0c-0.2,0-0.3,0-0.5,0c-0.1,0-0.1,0-0.2,0
				c-0.1,0-0.3,0-0.4,0c-0.1,0-0.1,0-0.2,0c-0.2,0-0.4,0-0.6,0h0c-0.2,0-0.4,0-0.6,0c-13.7-0.3-24.8-11.6-24.8-25.4
				c0-20.5,25.4-49.8,25.4-49.8S417.8,315.9,417.8,336.4z"/>
		</g>
	</g>
	<g>
		<g>
			<path class="st1" d="M417.8,466.4c0,13.4-10.3,24.3-23.4,25.4c0,0-0.1,0-0.1,0c-0.2,0-0.3,0-0.5,0c-0.1,0-0.1,0-0.2,0
				c-0.1,0-0.3,0-0.4,0c-0.1,0-0.1,0-0.2,0c-0.2,0-0.4,0-0.6,0h0c-0.2,0-0.4,0-0.6,0c-13.7-0.3-24.8-11.6-24.8-25.4
				c0-20.5,25.4-49.8,25.4-49.8S417.8,445.9,417.8,466.4z"/>
		</g>
	</g>
</g>
<g>
	<path class="st0" d="M277.8,66.1c0,25.2-20.5,45.7-45.7,45.7c-25.2,0-45.7-20.4-45.7-45.7c0-25.2,20.5-45.7,45.7-45.7
		C257.3,20.4,277.8,40.9,277.8,66.1z"/>
	<path class="st0" d="M394.4,239.2c-0.7,8.9-7.9,16-16.9,16.7c-4.7,0.3-9.4-0.2-12.4-3L315,203.4c-0.3-0.2-0.6-0.4-0.8-0.7
		l-36.3-35.9v110c0,2.4,0,135.1,0,135.1v13.6c0.1,6.5-3.5,12.6-9.3,15.8c-0.4,0.1-0.7,0.3-1.1,0.5c-3.8,2-8.3,2.5-12.5,1.5l-0.6-0.1
		c-8-2.2-13.6-9.4-13.6-17.6v-19.7l1-70.7V297c-1.1-1.7-5.9-2.2-5.9-2.2h-8c0,0-4.7,0.5-6.1,2.2l1,109.5v19.1
		c0,8.2-5.5,15.4-13.6,17.6l-0.6,0.1c-4.2,1-8.7,0.5-12.5-1.5c-0.3-0.2-0.7-0.3-1-0.4c-5.8-3.2-9.4-9.3-9.3-15.8v-18.3
		c0,0,0-128.4,0-131.1V167.8l-85.1,85.1c-7.3,6.9-18.8,6.9-26.1,0c-7.2-7.1-7.2-18.7,0-25.8l101-100.9c3.5-3.5,7.8-5.2,12.1-5.4
		h86.1h8.2c2,0.9,3.8,2.1,5.3,3.7l49.5,48.9c0.5,0.4,1,0.8,1.4,1.2l53,52.4C394.1,229.9,394.7,234.6,394.4,239.2z"/>
</g>
</svg>
