<?xml version="1.0" encoding="utf-8"?>
<!-- Generator: Adobe Illustrator 24.2.3, SVG Export Plug-In . SVG Version: 6.00 Build 0)  -->
<svg version="1.1" id="Layer_1" xmlns="http://www.w3.org/2000/svg" xmlns:xlink="http://www.w3.org/1999/xlink" x="0px" y="0px"
	 viewBox="0 0 464 464" style="enable-background:new 0 0 464 464;" xml:space="preserve">
<style type="text/css">
	.st0{fill:#5C5C5C;}
	.st1{fill:#00FFFF;}
	.st2{fill:none;stroke:#242424;stroke-width:16;stroke-linecap:round;stroke-linejoin:round;stroke-miterlimit:10;}
	.st3{fill:none;}
</style>
<g>
	<path class="st1" d="M324.6,88.2l4.4-61.3l-44.1,41.6L296,97.1L324.6,88.2z"/>
	<ellipse class="st1" cx="231.9" cy="232" rx="116.5" ry="118.3"/>
	<path class="st1" d="M168,97.1l11-28.4L134.7,27l4.5,61.1L168,97.1z"/>
	<path class="st0" d="M265.6,91.2L232,4.5l-33.6,86.7c10.8-2.6,22-4.1,33.6-4.1S254.8,88.5,265.6,91.2z"/>
	<path class="st0" d="M450.6,282.6l-75.9-52.5c0,0.6,0,1.3,0,1.9c0,23.2-5.4,45.1-15,64.6L450.6,282.6z"/>
	<path class="st0" d="M361.4,170.9l45.9-80.7l-87.8,27.5C337.3,131.7,351.7,149.9,361.4,170.9L361.4,170.9z"/>
	<path class="st1" d="M375.8,198.7l24.7,17.1l50-34.7l-59.6-9.1L375.8,198.7z"/>
	<path class="st1" d="M210,402.4l22.1,57.1l22-57L232,381.7L210,402.4z"/>
	<path class="st0" d="M134.7,437l67.3-63.4c-22.6-4.9-43.2-15.3-60.5-29.7L134.7,437z"/>
	<path class="st0" d="M262,373.6l67.3,63.4l-6.8-93C305.2,358.4,284.6,368.7,262,373.6z"/>
	<path class="st1" d="M347.3,325.3l2.2,30.4l57.8,18l-30.2-53L347.3,325.3z"/>
	<path class="st0" d="M144.5,117.6L56.7,90.1l45.9,80.7C112.3,149.9,126.7,131.7,144.5,117.6z"/>
	<path class="st1" d="M88.2,198.7l-15-26.4l-59.8,9.2l49.9,34.5L88.2,198.7z"/>
	<path class="st1" d="M56.8,373.9l57.7-18.1l2.2-30.5L87,320.8L56.8,373.9z"/>
	<path class="st0" d="M89.3,232c0-0.6,0-1.3,0-1.9l-75.9,52.5l90.8,13.9C94.7,277.1,89.3,255.2,89.3,232z"/>
</g>
</svg>
