<?xml version="1.0" encoding="utf-8"?>
<!-- Generator: Adobe Illustrator 24.2.3, SVG Export Plug-In . SVG Version: 6.00 Build 0)  -->
<svg version="1.1" id="Layer_1" xmlns="http://www.w3.org/2000/svg" xmlns:xlink="http://www.w3.org/1999/xlink" x="0px" y="0px"
	 viewBox="0 0 464 464" style="enable-background:new 0 0 464 464;" xml:space="preserve">
<style type="text/css">
	.st0{fill:#5C5C5C;}
	.st1{fill:#00FFFF;}
	.st2{fill:none;stroke:#242424;stroke-width:16;stroke-linecap:round;stroke-linejoin:round;stroke-miterlimit:10;}
	.st3{fill:none;}
</style>
<g>
	<path class="st0" d="M206.1,90.1c8.4-1.5,17-2.4,25.9-2.4s17.5,0.8,25.9,2.4c4.4-13,11.8-25,21.9-35c4.1-4.1,8.5-7.7,13.2-10.9
		C282.1,21.4,258.8,5.7,232,5.7s-50.1,15.8-60.9,38.5c4.7,3.2,9.1,6.8,13.2,10.9C194.3,65.1,201.7,77.1,206.1,90.1z"/>
	<path class="st0" d="M352.4,232c0-66.4-54-120.4-120.4-120.4s-120.4,54-120.4,120.4s54,120.4,120.4,120.4S352.4,298.4,352.4,232z
		 M232,323.3c-50.4,0-91.3-41-91.3-91.3s41-91.3,91.3-91.3s91.3,41,91.3,91.3S282.4,323.3,232,323.3z"/>
	<path class="st1" d="M71.7,167.4c7,7,15.3,12.2,24.4,15.6c14.6-40.2,46.5-72.1,86.7-86.7c-3.3-9-8.6-17.3-15.6-24.4
		c-12.7-12.7-29.7-19.8-47.7-19.8s-35,7-47.7,19.8C59,84.7,51.9,101.7,51.9,119.7C51.9,137.7,59,154.7,71.7,167.4
		C71.7,167.4,71.7,167.4,71.7,167.4z"/>
	<path class="st1" d="M367.7,183.4c9-3.3,17.3-8.6,24.4-15.6c12.7-12.7,19.8-29.7,19.8-47.7s-7-35-19.8-47.7
		c-12.7-12.7-29.7-19.8-47.7-19.8c-18,0-35,7-47.7,19.8c0,0,0,0,0,0c-7,7-12.2,15.3-15.6,24.4C321.2,111.3,353.1,143.2,367.7,183.4z
		"/>
	<path class="st1" d="M232,164.5c-37.2,0-67.5,30.3-67.5,67.5s30.3,67.5,67.5,67.5s67.5-30.3,67.5-67.5S269.2,164.5,232,164.5z"/>
	<path class="st1" d="M367.7,281.3c-14.6,40.2-46.5,72.1-86.7,86.7c3.3,9,8.6,17.3,15.6,24.4h0c26.3,26.3,69.2,26.3,95.5,0
		c12.7-12.7,19.8-29.7,19.8-47.7c0-18-7-35-19.8-47.7C385,289.9,376.7,284.6,367.7,281.3z"/>
	<path class="st0" d="M419.8,171.1c-3.2,4.7-6.8,9.1-10.9,13.2c-10,10-22,17.4-35,21.9c1.5,8.4,2.4,17,2.4,25.9s-0.8,17.5-2.4,25.9
		c13,4.4,25,11.8,35,21.9c4.1,4.1,7.7,8.6,10.9,13.2c22.8-10.9,38.5-34.1,38.5-60.9C458.3,205.2,442.6,181.9,419.8,171.1z"/>
	<path class="st0" d="M279.7,408.9c-10.2-10.2-17.4-22.2-21.8-35c-8.4,1.5-17.1,2.4-26,2.4s-17.5-0.8-26-2.4
		c-4.3,12.8-11.6,24.8-21.8,35c-4.1,4.1-8.6,7.7-13.2,10.9c10.9,22.8,34.1,38.5,60.9,38.5s50.1-15.8,60.9-38.5
		C288.3,416.6,283.9,413,279.7,408.9L279.7,408.9z"/>
	<path class="st1" d="M96.1,281c-9,3.3-17.3,8.6-24.4,15.6c0,0,0,0,0,0c-12.7,12.7-19.8,29.7-19.8,47.7c0,18,7,35,19.8,47.7
		c26.3,26.3,69.1,26.3,95.5,0c7-7,12.2-15.3,15.6-24.4C142.5,353.1,110.6,321.2,96.1,281z"/>
	<path class="st0" d="M90.1,257.9c-1.5-8.4-2.4-17-2.4-25.9s0.8-17.5,2.4-25.9c-13-4.4-25-11.8-35-21.9c-4.1-4.1-7.7-8.5-10.9-13.2
		C21.4,181.9,5.7,205.2,5.7,232c0,26.9,15.8,50.1,38.5,60.9c3.2-4.7,6.8-9.1,10.9-13.2C65.1,269.7,77.1,262.3,90.1,257.9z"/>
</g>
</svg>
