<?xml version="1.0" encoding="utf-8"?>
<!-- Generator: Adobe Illustrator 24.2.3, SVG Export Plug-In . SVG Version: 6.00 Build 0)  -->
<svg version="1.1" id="Layer_1" xmlns="http://www.w3.org/2000/svg" xmlns:xlink="http://www.w3.org/1999/xlink" x="0px" y="0px"
	 viewBox="0 0 464 464" style="enable-background:new 0 0 464 464;" xml:space="preserve">
<style type="text/css">
	.st0{fill:#5C5C5C;}
	.st1{fill:#00FFFF;}
	.st2{fill:none;stroke:#242424;stroke-width:16;stroke-linecap:round;stroke-linejoin:round;stroke-miterlimit:10;}
	.st3{fill:none;}
</style>
<g>
	<path class="st0" d="M232.2,296.2c-46.7,0-84.8,34.2-84.8,76.3s38,76.3,84.8,76.3s84.8-34.2,84.8-76.3S278.9,296.2,232.2,296.2z
		 M200,395.4c-7,0-12.7-5.7-12.7-12.7c0-7,5.7-12.7,12.7-12.7s12.7,5.7,12.7,12.7C212.7,389.7,207,395.4,200,395.4z M264.4,395.4
		c-7,0-12.7-5.7-12.7-12.7c0-7,5.7-12.7,12.7-12.7c7,0,12.7,5.7,12.7,12.7C277.1,389.7,271.4,395.4,264.4,395.4z"/>
	<path class="st0" d="M407,36.7v20.8l-32.5-19.7c-5.1-3.1-11.7-1.2-14.4,4.2l-0.6,1.3c-1.7,3.5-1.3,7.7,1.1,10.8l16.2,20.5
		c6.3,7.9,6.3,19.3-0.4,26.8c-9.1,10.2-24.5,8.9-32-1.7l-26.8-37.9c-1.9-2.7-4.9-4.3-8.2-4.3c-6.1,0-10.8,5.5-10,11.6l3.6,25.4
		c8.7,4.2,16.7,9.4,23.8,15.5c17.3,14.7,29.3,34.1,35.8,57.7h6.3c13.9,0,27.6-3.7,39.7-10.6C433.6,142.7,449,116,449,87V36.4
		c0-11.9-9.8-21.6-21.7-21.2C415.9,15.6,407,25.3,407,36.7z"/>
	<path class="st0" d="M137.1,110.1c7.2-6.1,15.1-11.3,23.8-15.5l4-28c0.2-1.4-0.2-2.8-1-3.9c-5.4-7.3-13.8-6.3-17.5-0.9l-30.1,42.6
		c-1.8,2.5-4.6,4.2-7.7,4.4C85,110.7,76.4,88.2,87,74.9l18.4-23.3c1.2-1.5,1.4-3.6,0.6-5.4l-2.1-4.3c-2.6-5.3-9.2-7.2-14.2-4.2
		L57,57.6l0-27c0-3.1-1.3-6-3.6-8C35.6,6.6,15,19,15,36.4V87c0,29,15.4,55.8,40.3,70.2c12.1,7,25.8,10.6,39.7,10.6h6.3
		C107.8,144.1,119.8,124.8,137.1,110.1L137.1,110.1z"/>
	<path class="st1" d="M309.6,129.1c-18.6-15.7-44.7-23.6-77.4-23.6c-32.7,0-58.8,8-77.4,23.6C133,147.5,122,175.8,122,213.4
		c0,32,7.9,67.7,21.5,98.9c20.1-25.1,52.4-41.5,88.8-41.5c36.4,0,68.7,16.3,88.8,41.5c13.5-31.1,21.5-66.8,21.5-98.9
		C342.4,175.8,331.4,147.5,309.6,129.1z M182,227.8c-13.8,0-25-11.2-25-25s11.2-25,25-25s25,11.2,25,25S195.8,227.8,182,227.8z
		 M283,227.8c-12.2,0-22.4-8.8-24.6-20.4c-0.5-1.4-0.8-2.9-0.8-4.4c0-1.4,0.2-2.8,0.7-4c1.8-12,12.2-21.2,24.7-21.2
		c13.8,0,25,11.2,25,25S296.8,227.8,283,227.8z"/>
</g>
</svg>
