<?xml version="1.0" encoding="utf-8"?>
<!-- Generator: Adobe Illustrator 24.2.3, SVG Export Plug-In . SVG Version: 6.00 Build 0)  -->
<svg version="1.1" id="Layer_1" xmlns="http://www.w3.org/2000/svg" xmlns:xlink="http://www.w3.org/1999/xlink" x="0px" y="0px"
	 viewBox="0 0 464 464" style="enable-background:new 0 0 464 464;" xml:space="preserve">
<style type="text/css">
	.st0{fill:#5C5C5C;}
	.st1{fill:#00FFFF;}
	.st2{fill:none;stroke:#242424;stroke-width:16;stroke-linecap:round;stroke-linejoin:round;stroke-miterlimit:10;}
	.st3{fill:none;}
</style>
<g>
	<path class="st0" d="M440.8,32.6v58.6l0,0c0,3.1-2.6,5.7-5.7,5.7H228.4c-3.1,0-5.6-2.5-5.6-5.6l0-0.1V32.6l0,0
		c0-3.1,2.6-5.7,5.7-5.7h206.7c3.1,0,5.6,2.5,5.6,5.6L440.8,32.6z"/>
	<path class="st1" d="M244.6,114.8c-3.2,0-5.8,2.6-5.8,5.8v67c0,0-0.1,14.7-0.1,23.3c0,3.2,2.6,5.9,5.8,5.9l160.9,0
		c2.5,0,4.7-1.6,5.5-4c1.2-3.5,16.5-91.7,16.5-91.7c0.3-3.4-2.4-6.4-5.8-6.4H244.6z"/>
	<path class="st0" d="M401.7,245.3c-42.1,94.6-127.8,165.1-232.5,185.8c-0.3,0.1-0.6,0.1-0.9,0.1l-109.2,6.6
		c-3.6,0.2-6.3,3.2-6.3,6.7v1.9c0,4-3.3,7.3-7.3,7.3h-15c-3.7,0-6.7-3-6.7-6.7v-44.5c0-3.7,3-6.7,6.7-6.7h15c4,0,7.3,3.3,7.3,7.3v0
		c0,4.5,4.4,7.8,8.7,6.4l47.8-14.6c4-1.2,7.9-2.8,11.7-4.7l38.4-19.4c7.1-3.6,13.7-8.2,19.4-13.6c31.9-30.1,53.8-70.6,60.3-115.5
		c0.5-3.3,3.3-5.8,6.7-5.8h149.7C400.5,235.8,403.7,240.9,401.7,245.3z"/>
</g>
</svg>
