<?xml version="1.0" encoding="utf-8"?>
<!-- Generator: Adobe Illustrator 24.2.3, SVG Export Plug-In . SVG Version: 6.00 Build 0)  -->
<svg version="1.1" id="Layer_1" xmlns="http://www.w3.org/2000/svg" xmlns:xlink="http://www.w3.org/1999/xlink" x="0px" y="0px"
	 viewBox="0 0 464 464" style="enable-background:new 0 0 464 464;" xml:space="preserve">
<style type="text/css">
	.st0{fill:#5C5C5C;}
	.st1{fill:#00FFFF;}
	.st2{fill:none;stroke:#242424;stroke-width:16;stroke-linecap:round;stroke-linejoin:round;stroke-miterlimit:10;}
	.st3{fill:none;}
</style>
<g>
	<g>
		<g>
			<path class="st0" d="M81.1,151.1c-4.6-5.2-13.6-5.2-18.2,0c-6.7,7.4-39.9,45.6-39.9,69.4c0,27,22,49,49,49s49-22,49-49
				C121,196.7,87.8,158.5,81.1,151.1z"/>
		</g>
	</g>
	<g>
		<g>
			<path class="st0" d="M179.1,27c-4.6-5.2-13.6-5.2-18.2,0c-6.7,7.4-39.9,47.3-39.9,71c0,27,22,49,49,49s49-22,49-49
				C218.9,74.3,185.7,34.5,179.1,27z"/>
		</g>
	</g>
	<g>
		<g>
			<path class="st0" d="M303.1,27c-4.6-5.2-13.6-5.2-18.2,0c-6.7,7.4-39.9,47.3-39.9,71c0,27,22,49,49,49s49-22,49-49
				C343,74.3,309.8,34.5,303.1,27z"/>
		</g>
	</g>
	<g>
		<g>
			<path class="st0" d="M401.1,151.1c-4.6-5.2-13.6-5.2-18.2,0c-6.7,7.4-39.9,45.6-39.9,69.4c0,27,22,49,49,49c27,0,49-22,49-49
				C440.9,196.7,407.7,158.5,401.1,151.1z"/>
		</g>
	</g>
	<g>
		<g>
			<path class="st1" d="M390.6,339.3c-5.8-32.2-31-59.2-62.8-67.2c-5.4-1.4-9.2-6.2-9.2-11.8v-1.2c0-45.3-34.5-83.7-79.6-87.3
				c-50.2-4-93.4,35.9-93.4,85.4v3c0,5.6-3.8,10.5-9.2,11.8c-31.8,8-57,35.1-62.8,67.2c-4.6,25.4,2.2,51.2,18.5,70.7
				c28.6,34.2,82.9,40.1,118.1,12.9c11.2-8.7,32.6-8.7,43.8,0c15.1,11.7,33.2,17.9,52.4,17.9c25.4,0,49.4-11.2,65.8-30.8
				C388.4,390.5,395.2,364.8,390.6,339.3z"/>
		</g>
	</g>
</g>
</svg>
