<?xml version="1.0" encoding="utf-8"?>
<!-- Generator: Adobe Illustrator 24.2.3, SVG Export Plug-In . SVG Version: 6.00 Build 0)  -->
<svg version="1.1" id="Layer_1" xmlns="http://www.w3.org/2000/svg" xmlns:xlink="http://www.w3.org/1999/xlink" x="0px" y="0px"
	 viewBox="0 0 536.8 717.4" style="enable-background:new 0 0 536.8 717.4;" xml:space="preserve">
<style type="text/css">
	.st0{fill:#5C5C5C;}
	.st1{fill:#00FFFF;}
</style>
<path class="st1" d="M192,221.5l20.7,20.7l36.5-36.5l-7.9-7.9C222.8,201.5,206,209.8,192,221.5z"/>
<path class="st1" d="M249.2,409.3l-36.5-36.5l-36.5,36.5l36.5,36.5L249.2,409.3z M202.5,399.2h20.4v20.4h-20.4V399.2z"/>
<path class="st0" d="M151.6,368.9c6.9,5.2,12.6,12.1,16.1,20.2l30.6-30.6l-36.5-36.5l-10.2,10.2V368.9z"/>
<path class="st0" d="M153.9,285.2l7.9,7.9l36.5-36.5l-20.7-20.7C166,249.9,157.6,266.7,153.9,285.2L153.9,285.2z"/>
<path class="st0" d="M151.6,460.2h46.7l-32.6-32.6c-3.6,4.7-8.4,8.3-14.1,10.3V460.2z"/>
<path class="st0" d="M375.6,368.9v-36.8l-10.2-10.2l-36.5,36.5l30.6,30.6C363.1,381,368.7,374.1,375.6,368.9L375.6,368.9z"/>
<path class="st0" d="M300.1,460.2l-36.5-36.5l-36.5,36.5h36.5H300.1z"/>
<path class="st1" d="M351,409.3l-36.5-36.5L278,409.3l36.5,36.5L351,409.3z M304.4,399.2h20.4v20.4h-20.4V399.2z"/>
<path class="st1" d="M278,205.7l36.5,36.5l20.7-20.7c-14-11.6-30.8-20-49.3-23.7L278,205.7z"/>
<path class="st1" d="M176.2,307.5l36.5,36.5l36.5-36.5L212.7,271L176.2,307.5z M222.9,317.7h-20.4v-20.4h20.4V317.7z"/>
<path class="st1" d="M406.2,358.4h10.2v-50.9c0-84.2-68.5-152.7-152.7-152.7s-152.7,68.5-152.7,152.7v50.9h10.2
	c3.5,0,6.9,0.4,10.2,1v-51.9c0-73,59.4-132.4,132.4-132.4S396,234.5,396,307.5v51.9C399.3,358.8,402.7,358.4,406.2,358.4z"/>
<path class="st0" d="M300.1,358.4l-36.5-36.5l-36.5,36.5l36.5,36.5L300.1,358.4z M253.4,348.2h20.4v20.4h-20.4L253.4,348.2z"/>
<path class="st0" d="M227.1,256.6l36.5,36.5l36.5-36.5l-36.5-36.5L227.1,256.6z M273.8,266.8h-20.4v-20.4h20.4V266.8z"/>
<path class="st0" d="M375.6,154.8c5.6,0,10.2-4.6,10.2-10.2s-4.6-10.2-10.2-10.2h-10.2v-20.4h10.2c13.7,0,25.2,9.1,29,21.6
	c11.3,2.9,20.5,11.3,24.4,22.5c5.3-2,11-3.2,17-3.3c-5.1-34.8-34.7-61.2-70.4-61.2c-16.8,0-30.5,13.7-30.5,30.5
	S358.8,154.8,375.6,154.8z"/>
<path class="st1" d="M351,307.5L314.5,271L278,307.5l36.5,36.5L351,307.5z M304.4,297.3h20.4v20.4h-20.4V297.3z"/>
<path class="st0" d="M152.4,175.1c-0.3,0-0.5,0.1-0.8,0.1c-12.4,0-23-7.4-27.8-18.1c-3.4,2.1-6.1,5.4-6.9,9.5l-0.6,3.1
	c7.3,7.3,12.3,16.9,14.1,27.5C137,189.1,144.4,181.8,152.4,175.1z"/>
<path class="st0" d="M373.4,285.2c-3.8-18.5-12.1-35.3-23.7-49.3l-20.7,20.7l36.5,36.5L373.4,285.2z"/>
<path class="st0" d="M477.4,252.8c0-4.4-1.7-8.3-4.4-11.2c-5.3,9-15,15-26.2,15c-6.8,0-13.3-1.4-19.2-3.8
	c4.5,13.5,7.3,27.6,8.4,42.3c10.5-11.3,23.3-21.4,34.4-29.2C474.9,262.8,477.4,257.9,477.4,252.8L477.4,252.8z"/>
<path class="st0" d="M314.5,554.3c-3.9-7.8-11.7-12.6-20.4-12.6h-6.3l-3.9-7.8c-3.9-7.8-11.7-12.6-20.4-12.6
	c-8.7,0-16.5,4.8-20.4,12.6l-3.9,7.8h-6.3c-8.7,0-16.5,4.8-20.4,12.6l-3.9,7.8h-57.2v20.4h112h112v-20.4h-57.2L314.5,554.3z"/>
<path class="st0" d="M121.1,378.8h-20.4c-16.8,0-30.5,13.7-30.5,30.5c0,5.6,4.6,10.2,10.2,10.2h61.1c5.6,0,10.2-4.6,10.2-10.2
	C151.6,392.5,137.9,378.8,121.1,378.8z"/>
<path class="st1" d="M151.6,480.6v61.1h44.8c6.7-10.8,17.7-18.1,30.3-19.9c7.8-12.9,21.6-20.8,36.9-20.8s29.1,7.9,36.9,20.8
	c12.5,1.8,23.6,9.1,30.3,19.9h44.8v-61.1h-112H151.6z"/>
<path class="st1" d="M90.5,439.9h40.7V501H90.5V439.9z"/>
<path class="st0" d="M112.6,598.1l-9.5,4.7c-7.8,3.9-12.6,11.7-12.6,20.4c0,11.2,9.1,20.4,20.4,20.4s20.4-9.1,20.4-20.4V521.3H93.4
	L112.6,598.1z"/>
<path class="st0" d="M361.5,427.7l-32.6,32.6h46.7V438C370,436,365.1,432.4,361.5,427.7L361.5,427.7z"/>
<path class="st0" d="M330.9,148c-2.2-4.1-4-8.4-5-13.1c-18.5-5.8-42.1-15.1-62.3-28.8c-20.2,13.7-43.8,22.9-62.3,28.8
	c-1,4.7-2.8,9-5,13.1c20.7-8.8,43.4-13.6,67.3-13.6S310.2,139.3,330.9,148L330.9,148z"/>
<path class="st0" d="M424.1,602.8l-9.5-4.7l19.2-76.7H396v101.8c0,11.2,9.1,20.4,20.4,20.4s20.4-9.1,20.4-20.4
	C436.7,614.5,431.9,606.7,424.1,602.8L424.1,602.8z"/>
<path class="st0" d="M426.5,378.8h-20.4c-16.8,0-30.5,13.7-30.5,30.5c0,5.6,4.6,10.2,10.2,10.2h61.1c5.6,0,10.2-4.6,10.2-10.2
	C457.1,392.5,443.4,378.8,426.5,378.8z"/>
<path class="st0" d="M122.6,135.7c3.8-12.5,15.3-21.6,29-21.6h10.2v20.4h-10.2c-5.6,0-10.2,4.6-10.2,10.2s4.6,10.2,10.2,10.2
	c16.8,0,30.5-13.7,30.5-30.5s-13.7-30.5-30.5-30.5c-35.9,0-65.5,26.6-70.5,61.2c6,0.1,11.7,1.3,17.1,3.3
	C102,147,111.3,138.6,122.6,135.7L122.6,135.7z"/>
<path class="st1" d="M257.5,85.5l6.1-4.6l6.1,4.6c17.2,12.9,38.4,21.9,56.2,28c1.5-7.2,4.7-13.7,8.9-19.4
	c-22.4-8.4-51.3-21.2-71.2-37.6c-19.9,16.4-48.8,29.2-71.2,37.6c4.2,5.7,7.4,12.2,8.9,19.4C219.1,107.5,240.3,98.4,257.5,85.5
	L257.5,85.5z"/>
<path class="st0" d="M411,169.7l-0.6-3.1c-0.8-4.1-3.5-7.4-6.9-9.5c-4.8,10.6-15.4,18.1-27.8,18.1c-0.3,0-0.5-0.1-0.8-0.1
	c8,6.7,15.4,14.1,22,22.1C398.7,186.5,403.7,177,411,169.7z"/>
<path class="st0" d="M90.5,359.5v-29.6C85.4,316.5,69,299.3,45,282.6c-9.8-6.8-15.6-18-15.6-29.8c0-14.2,7.7-26.7,20-32.8l1.1-0.6
	c3.1-13.6,15.2-23.9,29.8-23.9h10.2v20.4H80.3c-5.6,0-10.2,4.6-10.2,10.2c0,5.6,4.6,10.2,10.2,10.2c16.8,0,30.5-13.7,30.5-30.5
	s-13.7-30.5-30.5-30.5c-39.3,0-71.3,32-71.3,71.3c0,22.3,10.7,43.6,28.5,57c20.3,15.2,36.7,35,48,57.5
	C87.2,360.5,88.8,359.8,90.5,359.5z"/>
<path class="st0" d="M446.9,175.1c-16.8,0-30.5,13.7-30.5,30.5s13.7,30.5,30.5,30.5c5.6,0,10.2-4.6,10.2-10.2
	c0-5.6-4.6-10.2-10.2-10.2h-10.2v-20.4h10.2c14.5,0,26.7,10.2,29.8,23.9l1.1,0.6c12.4,6.2,20,18.6,20,32.4
	c0,12.3-5.8,23.4-15.6,30.2c-24,16.7-40.4,33.9-45.5,47.3v29.6c1.7,0.4,3.3,1,5,1.5c11.3-22.6,27.7-42.4,48-57.5
	c17.8-13.4,28.5-34.7,28.5-57C518.2,207.1,486.2,175.1,446.9,175.1L446.9,175.1z"/>
<path class="st1" d="M396,439.9h40.7V501H396V439.9z"/>
<path class="st0" d="M54.2,241.6c-2.7,2.9-4.4,6.6-4.4,10.8c0,5.6,2.6,10.5,6.9,13.5c11.2,7.8,23.9,17.9,34.4,29.2
	c1-14.7,3.9-28.9,8.4-42.3c-5.9,2.4-12.4,3.8-19.2,3.8C69.2,256.6,59.5,250.5,54.2,241.6z"/>
</svg>
