<?xml version="1.0" encoding="utf-8"?>
<!-- Generator: Adobe Illustrator 24.2.3, SVG Export Plug-In . SVG Version: 6.00 Build 0)  -->
<svg version="1.1" id="Layer_1" xmlns="http://www.w3.org/2000/svg" xmlns:xlink="http://www.w3.org/1999/xlink" x="0px" y="0px"
	 viewBox="0 0 349.4 525.7" style="enable-background:new 0 0 349.4 525.7;" xml:space="preserve">
<style type="text/css">
	.st0{fill:#5C5C5C;}
	.st1{fill:#00FFFF;}
</style>
<path class="st0" d="M313.7,493.4H35.7c-10.7,0-19.8,13.5-23.1,32.3h324.2C333.4,506.9,324.3,493.4,313.7,493.4z"/>
<path class="st0" d="M287.3,405.4v64.2c0,4.3,3.5,7.8,7.8,7.8h16.2c0,0,0.1,0,0.1,0c4.3,0,7.9-3.4,7.9-7.8V357.2
	c0-4.3-3.5-7.8-7.8-7.8h-16.5c-4.3,0-7.8,3.5-7.8,7.8V405.4z"/>
<path class="st1" d="M270,397.4v80H80.7v-80c0.2-0.5,0.3-1,0.6-1.4c3.7-8.6,12.2-14.6,22.1-14.6h144c9.9,0,18.4,6,22,14.5
	C269.6,396.4,269.8,396.9,270,397.4z"/>
<path class="st0" d="M346.3,242.1l-72.3-9.5c-2.5-0.3-4.1,2.8-2.2,4.6l30.2,30c2.1,2.1-0.3,5.6-3,4.4l-52.3-23l-2-0.9l1.6,3.3
	c0.2,0.4,0.3,0.9,0.3,1.3c0,0.4-0.1,0.9-0.1,1.3c-2.3,37.4-9.1,74.3-20.4,110c-0.4,1.1-1.4,1.9-2.6,1.9h-96.3
	c-1.2,0-2.2-0.8-2.6-1.9c-10.8-34.4-17.6-69.7-20.1-105.5c-0.1-1.7-1.8-2.9-3.4-2.4c0,0,0,0,0,0c-0.2,0-0.3,0.1-0.5,0.2l-44.7,23
	c-2.6,1.4-5.2-2-3.2-4.2l34.7-38.9c1.7-1.9,0.1-4.8-2.4-4.5L3,242.1c-3,0.4-4.2-3.6-1.6-5l64.1-34.8c2.3-1.2,1.7-4.6-0.9-5
	l-42.1-6.5c-2.9-0.5-3.1-4.6-0.2-5.3l50.9-11c2.4-0.5,2.9-3.8,0.7-5L1.4,130c-2.6-1.4-1.3-5.4,1.6-5l72.3,9.5
	c2.5,0.3,4.1-2.8,2.2-4.6l-30.2-30c-2.1-2.1,0.3-5.6,3-4.4l47.7,21c2.3,1,4.6-1.4,3.5-3.6L66,38.4c-1.3-2.7,2.1-5.2,4.3-3.1
	l52.9,50.2c1.9,1.8,4.9,0.2,4.5-2.4l-6.8-42.1c-0.5-2.9,3.5-4.4,5-1.8l26.2,45c1.3,2.2,4.5,1.6,5-0.9L172,2.2c0.5-2.9,4.7-2.9,5.3,0
	l13.3,71.7c0.5,2.5,3.9,3,5,0.7l19.2-38c1.3-2.7,5.4-1.5,5.1,1.5l-5.3,51.9c-0.3,2.5,2.7,3.9,4.5,2.2l59.9-56.9
	c2.2-2,5.6,0.4,4.3,3.1L252,104.2c-1.1,2.3,1.4,4.7,3.7,3.5l37.9-19.5c2.6-1.4,5.2,2,3.2,4.2l-34.7,38.8c-1.7,1.9-0.1,4.8,2.4,4.5
	l81.9-10.8c3-0.4,4.2,3.6,1.6,5l-64.1,34.8c-2.3,1.2-1.7,4.6,0.9,5l42.1,6.5c2.9,0.5,3.1,4.6,0.2,5.3l-50.9,11
	c-2.4,0.5-2.9,3.8-0.7,5l72.6,39.4C350.6,238.5,349.3,242.5,346.3,242.1z"/>
<path class="st0" d="M31.3,469.6c0,4.3,3.6,7.8,7.9,7.8c0,0,0.1,0,0.1,0h16.2c4.3,0,7.8-3.5,7.8-7.8V357.2c0-4.3-3.5-7.8-7.8-7.8
	H39.1c-4.3,0-7.8,3.5-7.8,7.8V469.6z"/>
<path class="st1" d="M202.6,219.7l-25.9-13.5c-0.7-0.4-1.6-0.4-2.3,0l-25.8,13.7c-1.8,0.9-3.9-0.6-3.5-2.6l4.8-28.8
	c0.1-0.8-0.1-1.6-0.7-2.2l-21-20.3c-1.5-1.4-0.7-3.9,1.3-4.2l28.9-4.3c0.8-0.1,1.5-0.6,1.8-1.3l12.8-26.3c0.9-1.8,3.5-1.8,4.4,0
	l13,26.2c0.4,0.7,1,1.2,1.8,1.3l29,4.1c2,0.3,2.8,2.7,1.4,4.2l-20.9,20.5c-0.6,0.6-0.8,1.4-0.7,2.2l5.1,28.8
	C206.4,219.1,204.4,220.6,202.6,219.7z"/>
</svg>
