<?xml version="1.0" encoding="utf-8"?>
<!-- Generator: Adobe Illustrator 24.2.3, SVG Export Plug-In . SVG Version: 6.00 Build 0)  -->
<svg version="1.1" id="Layer_1" xmlns="http://www.w3.org/2000/svg" xmlns:xlink="http://www.w3.org/1999/xlink" x="0px" y="0px"
	 viewBox="0 0 536.8 717.4" style="enable-background:new 0 0 536.8 717.4;" xml:space="preserve">
<style type="text/css">
	.st0{fill:#5C5C5C;}
	.st1{fill:#00FFFF;}
</style>
<path class="st1" d="M147.6,522h251.1v20.6H147.6V522z"/>
<path class="st0" d="M147.6,563.1h251.1v42H147.6V563.1z"/>
<path class="st0" d="M450.6,626.6H95c-13.6,0-25.3,8.6-29.6,20.6h414.9C475.9,635.2,464.3,626.6,450.6,626.6z"/>
<path class="st1" d="M181.8,130.8c1.7,0.3,3.3,0.4,5,0.4c2.8,0,5.5-0.4,8.1-1.2l6.2,10.1l17.8-11l-6.8-11.1
	c2.8-3.9,4.8-8.4,5.6-13.3c1.3-8.3-0.7-16.6-5.6-23.3c-4.9-6.8-12.2-11.2-20.5-12.6c-8.2-1.3-16.6,0.7-23.3,5.6
	c-6.8,4.9-11.2,12.2-12.5,20.5c-1.3,8.3,0.7,16.6,5.6,23.3C166.3,125,173.5,129.5,181.8,130.8z M180.6,91.3c1.8-1.3,3.9-2,6.1-2
	c0.5,0,1.1,0,1.6,0.1c2.8,0.4,5.2,1.9,6.8,4.2l0,0c1.6,2.3,2.3,5,1.9,7.8c-0.4,2.8-1.9,5.2-4.2,6.8c-2.3,1.6-5,2.3-7.8,1.9
	c-2.8-0.4-5.2-1.9-6.8-4.2C174.9,101.2,175.9,94.7,180.6,91.3z"/>
<path class="st1" d="M344.5,140.1l6.2-10.1c2.6,0.7,5.4,1.2,8.1,1.2c1.7,0,3.3-0.1,5-0.4c8.3-1.3,15.5-5.8,20.5-12.5
	c4.9-6.8,6.9-15.1,5.6-23.3c-1.3-8.3-5.8-15.6-12.5-20.5c-6.8-4.9-15.1-6.9-23.3-5.6c-8.3,1.3-15.6,5.8-20.5,12.5
	c-4.9,6.8-6.9,15.1-5.6,23.3c0.8,4.9,2.8,9.4,5.6,13.3l-6.8,11.1L344.5,140.1z M350.4,93.6c1.6-2.3,4.1-3.7,6.8-4.2
	c0.6-0.1,1.1-0.1,1.7-0.1c2.2,0,4.3,0.7,6.1,2c4.7,3.4,5.7,9.9,2.3,14.6l0,0c-1.6,2.3-4.1,3.7-6.8,4.2c-2.8,0.4-5.5-0.2-7.8-1.9
	c-2.3-1.6-3.7-4.1-4.2-6.8C348.1,98.6,348.8,95.9,350.4,93.6z"/>
<path class="st0" d="M356.7,217.9c0-33.9-20.2-64.2-51.5-77.2c-13.2-5.5-21.6-18.7-21.6-33.6c0-4,0.6-7.9,1.9-11.7l19-34.5
	l-31.3-20.9L241.8,61l19,34.5c1.3,3.8,1.9,7.7,1.9,11.7c0,14.9-8.5,28.1-21.7,33.6c-31.3,13-51.4,43.3-51.4,77.2v20.9h-52.7v138.9
	c5.8,3.6,9.8,10.3,9.8,18v73.6c9-6.6,20.1-10.7,32.2-10.7h6.9c-18.7-59.2-28.3-120.5-28.3-182.6v-15.8h52.7v-30.6
	c0-35.9,29.8-65.3,65.7-63.5c33,1.7,59.4,29.1,59.4,62.7v31.4H388V276c0,62.1-9.4,123.4-27.9,182.6h5.5c12.1,0,23.2,4.1,32.2,10.7
	v-73.5c0-7.7,4.3-14.4,10.7-18v-139h-51.8V217.9z"/>
<path class="st0" d="M419.2,511.1v94h31.5c3.6,0,7.1,0.4,10.5,1.1V438.1h-42V511.1z"/>
<path class="st0" d="M461.1,155.5c0,11.6-9.4,20.9-20.9,20.9s-20.9-9.4-20.9-20.9s9.4-20.9,20.9-20.9S461.1,143.9,461.1,155.5z"/>
<path class="st0" d="M430,196.2v179.3h20.6V196.2c-3.3,0.9-6.7,1.5-10.3,1.5C436.7,197.7,433.3,197.1,430,196.2z"/>
<path class="st0" d="M419.2,396.1h42v20.6h-42V396.1z"/>
<path class="st1" d="M314.7,280.8v-51.7c0-21.2-15.5-39.5-36.5-42.1c-25.6-3.2-47.5,16.6-47.5,41.5v52.3h-52.5
	c0.5,60.5,10.2,120.2,28.7,177.8h131.5c18.5-57.6,28.2-117.3,28.7-177.8H314.7z"/>
<path class="st0" d="M84.2,396.1h42v20.6h-42V396.1z"/>
<path class="st0" d="M84.2,606.2c3.4-0.7,6.9-1.1,10.5-1.1h31.5V438.1h-42V606.2z"/>
<path class="st0" d="M105.2,197.7c-3.6,0-7-0.6-10.3-1.5v179.3h20.6V196.2C112.1,197.1,108.7,197.7,105.2,197.7z"/>
<path class="st0" d="M126.4,155.5c0,11.6-9.4,20.9-20.9,20.9s-20.9-9.4-20.9-20.9s9.4-20.9,20.9-20.9S126.4,143.9,126.4,155.5z"/>
<path class="st0" d="M149.1,500.6h247.5c-4.3-12-16-20.6-29.6-20.6H178.7C165,480,153.4,488.6,149.1,500.6z"/>
</svg>
