<?xml version="1.0" encoding="utf-8"?>
<!-- Generator: Adobe Illustrator 24.2.3, SVG Export Plug-In . SVG Version: 6.00 Build 0)  -->
<svg version="1.1" id="Layer_1" xmlns="http://www.w3.org/2000/svg" xmlns:xlink="http://www.w3.org/1999/xlink" x="0px" y="0px"
	 viewBox="0 0 536.8 717.4" style="enable-background:new 0 0 536.8 717.4;" xml:space="preserve">
<style type="text/css">
	.st0{fill:#5C5C5C;}
	.st1{fill:#00FFFF;}
</style>
<path class="st0" d="M341.7,170.2V90.3c0-36.9-30.6-67.1-67.5-65.3C240.2,26.8,213,55,213,89.5v80.7h-80.4
	c0.8,93.3,15.7,185.5,44,274.3h201.5c28.3-88.8,43.2-181,44-274.3H341.7z"/>
<path class="st0" d="M513.9,662.5H34.6c3.6-23.5,11.8-42.2,22.1-50.6V398.1h48.2v209.1h25V493.7h-0.7c5.1-17.2,18.7-29.5,34.7-29.5
	h220.9c16,0,29.6,12.3,34.7,29.5h-0.1v113.5h24.1V398.1h48.2V612C502.1,620.3,510.2,639,513.9,662.5z"/>
<path class="st0" d="M93.3,165.6V373H69.2V165.8h0.6c4.5,0.8,18.5,0.8,22.9,0C92.9,165.7,93.1,165.7,93.3,165.6z"/>
<path d="M69.8,165.8h-0.6v-0.1C69.4,165.7,69.6,165.7,69.8,165.8z"/>
<path class="st1" d="M104.9,144.3l-23.2-12.1c-0.6-0.3-1.4-0.3-2,0l-23.1,12.2c-1.6,0.8-3.5-0.5-3.2-2.3l4.3-25.8
	c0.1-0.7-0.1-1.4-0.6-1.9L38.3,96.3c-1.3-1.3-0.6-3.5,1.2-3.7l25.8-3.9c0.7-0.1,1.3-0.6,1.6-1.2l11.5-23.5c0.8-1.6,3.1-1.6,3.9,0
	L94,87.5c0.3,0.6,0.9,1.1,1.6,1.2l25.9,3.7c1.8,0.3,2.5,2.4,1.2,3.7l-18.6,18.3c-0.5,0.5-0.7,1.2-0.6,1.9L108,142
	C108.4,143.8,106.5,145.1,104.9,144.3z"/>
<path class="st1" d="M492,144.5l-23.2-12.1c-0.6-0.3-1.4-0.3-2,0l-23.1,12.2c-1.6,0.8-3.5-0.5-3.2-2.3l4.3-25.8
	c0.1-0.7-0.1-1.4-0.6-1.9l-18.8-18.2c-1.3-1.3-0.6-3.5,1.2-3.7l25.8-3.9c0.7-0.1,1.3-0.6,1.6-1.2l11.5-23.5c0.8-1.6,3.1-1.6,3.9,0
	l11.7,23.4c0.3,0.6,0.9,1.1,1.6,1.2l25.9,3.7c1.8,0.3,2.5,2.4,1.2,3.7l-18.6,18.3c-0.5,0.5-0.7,1.2-0.6,1.9l4.5,25.7
	C495.5,144,493.6,145.3,492,144.5z"/>
<path d="M92.4,165.7L92.4,165.7c-4.5,0.9-18.4,0.9-22.9,0L92.4,165.7z"/>
<path class="st0" d="M480.2,167v207h-24.1V166.6h0.2h23.1v0.5C479.4,167.1,480.2,167,480.2,167z"/>
</svg>
